<svg xmlns="http://www.w3.org/2000/svg" xmlns:xlink="http://www.w3.org/1999/xlink" width="1024" zoomAndPan="magnify" viewBox="0 0 768 576" height="768" preserveAspectRatio="xMidYMid meet" version="1.0"><defs><g/><clipPath id="id1"><path d="M 24 151.328125 L 292.402344 151.328125 L 292.402344 418.328125 L 24 418.328125 Z M 24 151.328125 " clip-rule="nonzero"/></clipPath></defs><rect x="-76.8" width="921.6" fill="#ffffff" y="-57.6" height="691.2" fill-opacity="1"/><rect x="-76.8" width="921.6" fill="#020202" y="-57.6" height="691.2" fill-opacity="1"/><rect x="-76.8" width="921.6" fill="#ffffff" y="-57.6" height="691.2" fill-opacity="1"/><rect x="-76.8" width="921.6" fill="#020202" y="-57.6" height="691.2" fill-opacity="1"/><path stroke-linecap="round" transform="matrix(2.87448, -2.40771, 2.407949, 2.874766, 205.646797, 163.587157)" fill="none" stroke-linejoin="miter" d="M 0.500472 0.000225318 L 30.905554 0.0000792823 " stroke="#a50e58" stroke-width="1" stroke-opacity="1" stroke-miterlimit="4"/><path stroke-linecap="round" transform="matrix(3.574537, -1.114396, 1.116116, 3.580054, 273.420457, 218.176593)" fill="none" stroke-linejoin="miter" d="M 0.499688 0.000377543 L 31.951607 0.000131282 " stroke="#a50e58" stroke-width="1" stroke-opacity="1" stroke-miterlimit="4"/><path stroke-linecap="round" transform="matrix(3.753766, 0.00000000000000098, -0.000000000000000979, 3.75, 292.080895, 285.819675)" fill="none" stroke-linejoin="miter" d="M 0.499801 0.000169922 L 43.057058 0.000169922 " stroke="#a50e58" stroke-width="1" stroke-opacity="1" stroke-miterlimit="4"/><path stroke-linecap="round" transform="matrix(3.569749, 1.176693, -1.173974, 3.5615, 272.827253, 357.914331)" fill="none" stroke-linejoin="miter" d="M 0.500394 0.000214933 L 27.837378 0.000416286 " stroke="#a50e58" stroke-width="1" stroke-opacity="1" stroke-miterlimit="4"/><path stroke-linecap="round" transform="matrix(2.813181, 2.46591, -2.471876, 2.819988, 204.443106, 410.923419)" fill="none" stroke-linejoin="miter" d="M 0.500353 -0.000352785 L 30.576955 0.000280454 " stroke="#a50e58" stroke-width="1" stroke-opacity="1" stroke-miterlimit="4"/><path fill="#ff5757" d="M 263.800781 284.816406 C 263.800781 343.042969 216.515625 390.238281 158.171875 390.238281 C 99.828125 390.238281 52.542969 343.042969 52.542969 284.816406 C 52.542969 226.59375 99.828125 179.398438 158.171875 179.398438 C 216.515625 179.398438 263.800781 226.59375 263.800781 284.816406 " fill-opacity="1" fill-rule="nonzero"/><g clip-path="url(#id1)"><path fill="#ff5757" d="M 286.886719 284.816406 C 286.628906 332.945312 259.492188 377.074219 216.722656 399.253906 C 173.453125 421.691406 120.003906 416.375 81.054688 387.703125 C 41.890625 358.863281 22.957031 308.6875 31.625 261.171875 C 40.160156 214.402344 75.503906 175.78125 120.816406 161.851562 C 159.753906 149.878906 202.671875 157.914062 235.289062 181.9375 C 267.753906 205.84375 286.667969 244.769531 286.886719 284.816406 C 286.90625 288.164062 292.113281 288.171875 292.089844 284.816406 C 291.832031 238.734375 267.933594 195.882812 228.890625 171.292969 C 189.410156 146.429688 138.417969 144.960938 97 165.894531 C 56.164062 186.53125 28.988281 227.984375 24.765625 273.207031 C 20.457031 319.277344 41.652344 364.519531 78.425781 392.195312 C 115.792969 420.304688 166.976562 425.964844 209.972656 408.085938 C 252.003906 390.605469 282.574219 351.742188 290.222656 307.050781 C 291.484375 299.707031 292.046875 292.257812 292.085938 284.820312 C 292.109375 281.464844 286.902344 281.476562 286.882812 284.820312 " fill-opacity="1" fill-rule="nonzero"/></g><path fill="#ffad01" d="M 581.601562 98.371094 L 309.753906 98.371094 C 304.070312 98.371094 299.445312 93.726562 299.445312 88.027344 L 299.445312 47.960938 C 299.445312 42.261719 304.070312 37.621094 309.753906 37.621094 L 581.601562 37.621094 C 587.28125 37.621094 591.910156 42.261719 591.910156 47.960938 L 591.910156 88.027344 C 591.910156 93.726562 587.28125 98.371094 581.601562 98.371094 " fill-opacity="1" fill-rule="nonzero"/><path fill="#ff5757" d="M 318.175781 30.457031 C 297.464844 30.457031 280.675781 47.246094 280.675781 67.957031 C 280.675781 88.667969 297.464844 105.457031 318.175781 105.457031 C 338.886719 105.457031 355.675781 88.667969 355.675781 67.957031 C 355.675781 47.246094 338.886719 30.457031 318.175781 30.457031 " fill-opacity="1" fill-rule="nonzero"/><g fill="#f7f7f7" fill-opacity="1"><g transform="translate(429.391242, 78.751339)"><g><path d="M 15.015625 -19.9375 L 20.15625 -19.9375 L 20.15625 0 L 15.015625 0 L 15.015625 -8.0625 L 6.9375 -8.0625 L 6.9375 0 L 1.796875 0 L 1.796875 -19.9375 L 6.9375 -19.9375 L 6.9375 -12.1875 L 15.015625 -12.1875 Z M 15.015625 -19.9375 "/></g></g></g><g fill="#f7f7f7" fill-opacity="1"><g transform="translate(451.340253, 78.751339)"><g><path d="M 6.265625 0 L 6.265625 -15.6875 L 0.34375 -15.6875 L 0.34375 -19.9375 L 17.53125 -19.9375 L 17.53125 -15.6875 L 11.59375 -15.6875 L 11.59375 0 Z M 6.265625 0 "/></g></g></g><g fill="#f7f7f7" fill-opacity="1"><g transform="translate(469.201813, 78.751339)"><g><path d="M 17.890625 -19.9375 L 21.984375 -19.9375 L 21.984375 0 L 17.390625 0 L 17.359375 -9.125 L 13.578125 0 L 10.25 0 L 6.4375 -9.015625 L 6.4375 0 L 1.875 0 L 1.875 -19.9375 L 5.984375 -19.9375 L 11.953125 -6.328125 Z M 17.890625 -19.9375 "/></g></g></g><g fill="#f7f7f7" fill-opacity="1"><g transform="translate(493.054561, 78.751339)"><g><path d="M 1.796875 0 L 1.796875 -19.9375 L 7.0625 -19.9375 L 7.0625 -4.25 L 15.484375 -4.25 L 15.484375 0 Z M 1.796875 0 "/></g></g></g><g fill="#f7f7f7" fill-opacity="1"><g transform="translate(303.692566, 85.879538)"><g><path d="M 20.734375 -7.15625 L 28.125 -7.15625 L 28.125 0 L 4.421875 0 L 4.421875 -7.15625 L 11.765625 -7.15625 L 11.765625 -24.390625 L 4.890625 -20.453125 L 4.890625 -28.171875 L 15.453125 -34.171875 L 20.734375 -34.171875 Z M 20.734375 -7.15625 "/></g></g></g><path fill="#7c3dc6" d="M 674.675781 206.894531 L 402.824219 206.894531 C 397.144531 206.894531 392.515625 202.253906 392.515625 196.554688 L 392.515625 156.488281 C 392.515625 150.789062 397.144531 146.144531 402.824219 146.144531 L 674.675781 146.144531 C 680.355469 146.144531 684.984375 150.789062 684.984375 156.488281 L 684.984375 196.554688 C 684.984375 202.253906 680.355469 206.894531 674.675781 206.894531 " fill-opacity="1" fill-rule="nonzero"/><path fill="#ff5757" d="M 411.25 138.984375 C 390.539062 138.984375 373.75 155.773438 373.75 176.484375 C 373.75 197.195312 390.539062 213.984375 411.25 213.984375 C 431.960938 213.984375 448.75 197.195312 448.75 176.484375 C 448.75 155.773438 431.960938 138.984375 411.25 138.984375 " fill-opacity="1" fill-rule="nonzero"/><g fill="#f7f7f7" fill-opacity="1"><g transform="translate(528.722245, 188.227762)"><g><path d="M 12.296875 0.265625 C 10.078125 0.265625 8.140625 -0.1875 6.484375 -1.09375 C 4.835938 -2 3.566406 -3.28125 2.671875 -4.9375 C 1.785156 -6.601562 1.34375 -8.523438 1.34375 -10.703125 C 1.34375 -12.867188 1.785156 -14.773438 2.671875 -16.421875 C 3.566406 -18.078125 4.835938 -19.359375 6.484375 -20.265625 C 8.140625 -21.171875 10.078125 -21.625 12.296875 -21.625 C 13.703125 -21.625 15.054688 -21.414062 16.359375 -21 C 17.671875 -20.582031 18.726562 -20.015625 19.53125 -19.296875 L 17.8125 -15.296875 C 16.070312 -16.554688 14.273438 -17.1875 12.421875 -17.1875 C 10.703125 -17.1875 9.378906 -16.640625 8.453125 -15.546875 C 7.535156 -14.460938 7.078125 -12.847656 7.078125 -10.703125 C 7.078125 -8.546875 7.535156 -6.914062 8.453125 -5.8125 C 9.378906 -4.71875 10.703125 -4.171875 12.421875 -4.171875 C 14.273438 -4.171875 16.070312 -4.800781 17.8125 -6.0625 L 19.53125 -2.0625 C 18.726562 -1.34375 17.671875 -0.773438 16.359375 -0.359375 C 15.054688 0.0546875 13.703125 0.265625 12.296875 0.265625 Z M 12.296875 0.265625 "/></g></g></g><g fill="#f7f7f7" fill-opacity="1"><g transform="translate(549.264264, 188.227762)"><g><path d="M 9.65625 0.265625 C 8.0625 0.265625 6.484375 0.0546875 4.921875 -0.359375 C 3.359375 -0.773438 2.085938 -1.34375 1.109375 -2.0625 L 2.875 -6.0625 C 3.914062 -5.394531 5.019531 -4.882812 6.1875 -4.53125 C 7.363281 -4.1875 8.539062 -4.015625 9.71875 -4.015625 C 10.914062 -4.015625 11.832031 -4.179688 12.46875 -4.515625 C 13.113281 -4.847656 13.4375 -5.3125 13.4375 -5.90625 C 13.4375 -6.445312 13.144531 -6.890625 12.5625 -7.234375 C 11.988281 -7.585938 10.898438 -7.9375 9.296875 -8.28125 C 7.273438 -8.675781 5.703125 -9.171875 4.578125 -9.765625 C 3.460938 -10.359375 2.679688 -11.050781 2.234375 -11.84375 C 1.785156 -12.644531 1.5625 -13.617188 1.5625 -14.765625 C 1.5625 -16.054688 1.929688 -17.226562 2.671875 -18.28125 C 3.410156 -19.332031 4.445312 -20.148438 5.78125 -20.734375 C 7.125 -21.328125 8.65625 -21.625 10.375 -21.625 C 11.914062 -21.625 13.410156 -21.410156 14.859375 -20.984375 C 16.316406 -20.554688 17.453125 -19.992188 18.265625 -19.296875 L 16.53125 -15.296875 C 15.59375 -15.960938 14.601562 -16.46875 13.5625 -16.8125 C 12.519531 -17.164062 11.476562 -17.34375 10.4375 -17.34375 C 9.414062 -17.34375 8.59375 -17.144531 7.96875 -16.75 C 7.351562 -16.363281 7.046875 -15.84375 7.046875 -15.1875 C 7.046875 -14.820312 7.15625 -14.519531 7.375 -14.28125 C 7.59375 -14.039062 8.003906 -13.804688 8.609375 -13.578125 C 9.210938 -13.347656 10.113281 -13.101562 11.3125 -12.84375 C 13.25 -12.414062 14.769531 -11.90625 15.875 -11.3125 C 16.988281 -10.726562 17.773438 -10.039062 18.234375 -9.25 C 18.703125 -8.457031 18.9375 -7.515625 18.9375 -6.421875 C 18.9375 -4.335938 18.125 -2.703125 16.5 -1.515625 C 14.875 -0.328125 12.59375 0.265625 9.65625 0.265625 Z M 9.65625 0.265625 "/></g></g></g><g fill="#f7f7f7" fill-opacity="1"><g transform="translate(569.416439, 188.227762)"><g><path d="M 9.65625 0.265625 C 8.0625 0.265625 6.484375 0.0546875 4.921875 -0.359375 C 3.359375 -0.773438 2.085938 -1.34375 1.109375 -2.0625 L 2.875 -6.0625 C 3.914062 -5.394531 5.019531 -4.882812 6.1875 -4.53125 C 7.363281 -4.1875 8.539062 -4.015625 9.71875 -4.015625 C 10.914062 -4.015625 11.832031 -4.179688 12.46875 -4.515625 C 13.113281 -4.847656 13.4375 -5.3125 13.4375 -5.90625 C 13.4375 -6.445312 13.144531 -6.890625 12.5625 -7.234375 C 11.988281 -7.585938 10.898438 -7.9375 9.296875 -8.28125 C 7.273438 -8.675781 5.703125 -9.171875 4.578125 -9.765625 C 3.460938 -10.359375 2.679688 -11.050781 2.234375 -11.84375 C 1.785156 -12.644531 1.5625 -13.617188 1.5625 -14.765625 C 1.5625 -16.054688 1.929688 -17.226562 2.671875 -18.28125 C 3.410156 -19.332031 4.445312 -20.148438 5.78125 -20.734375 C 7.125 -21.328125 8.65625 -21.625 10.375 -21.625 C 11.914062 -21.625 13.410156 -21.410156 14.859375 -20.984375 C 16.316406 -20.554688 17.453125 -19.992188 18.265625 -19.296875 L 16.53125 -15.296875 C 15.59375 -15.960938 14.601562 -16.46875 13.5625 -16.8125 C 12.519531 -17.164062 11.476562 -17.34375 10.4375 -17.34375 C 9.414062 -17.34375 8.59375 -17.144531 7.96875 -16.75 C 7.351562 -16.363281 7.046875 -15.84375 7.046875 -15.1875 C 7.046875 -14.820312 7.15625 -14.519531 7.375 -14.28125 C 7.59375 -14.039062 8.003906 -13.804688 8.609375 -13.578125 C 9.210938 -13.347656 10.113281 -13.101562 11.3125 -12.84375 C 13.25 -12.414062 14.769531 -11.90625 15.875 -11.3125 C 16.988281 -10.726562 17.773438 -10.039062 18.234375 -9.25 C 18.703125 -8.457031 18.9375 -7.515625 18.9375 -6.421875 C 18.9375 -4.335938 18.125 -2.703125 16.5 -1.515625 C 14.875 -0.328125 12.59375 0.265625 9.65625 0.265625 Z M 9.65625 0.265625 "/></g></g></g><g fill="#f7f7f7" fill-opacity="1"><g transform="translate(396.742747, 194.405959)"><g><path d="M 26.828125 -7.15625 L 26.828125 0 L 2.734375 0 L 2.734375 -6.625 L 13.875 -18.234375 C 15.945312 -20.410156 16.984375 -22.445312 16.984375 -24.34375 C 16.984375 -26.539062 15.675781 -27.640625 13.0625 -27.640625 C 11.71875 -27.640625 10.300781 -27.375 8.8125 -26.84375 C 7.320312 -26.320312 5.820312 -25.566406 4.3125 -24.578125 L 1.484375 -30.953125 C 2.859375 -32.078125 4.640625 -32.96875 6.828125 -33.625 C 9.023438 -34.28125 11.257812 -34.609375 13.53125 -34.609375 C 16 -34.609375 18.148438 -34.210938 19.984375 -33.421875 C 21.828125 -32.640625 23.253906 -31.519531 24.265625 -30.0625 C 25.273438 -28.613281 25.78125 -26.910156 25.78125 -24.953125 C 25.78125 -22.972656 25.382812 -21.175781 24.59375 -19.5625 C 23.8125 -17.945312 22.476562 -16.128906 20.59375 -14.109375 L 13.78125 -7.15625 Z M 26.828125 -7.15625 "/></g></g></g><path fill="#39b6f0" d="M 747.542969 315.421875 L 475.695312 315.421875 C 470.011719 315.421875 465.382812 310.78125 465.382812 305.082031 L 465.382812 265.015625 C 465.382812 259.316406 470.011719 254.671875 475.695312 254.671875 L 747.542969 254.671875 C 753.222656 254.671875 757.851562 259.316406 757.851562 265.015625 L 757.851562 305.082031 C 757.851562 310.78125 753.222656 315.421875 747.542969 315.421875 " fill-opacity="1" fill-rule="nonzero"/><path fill="#ff5757" d="M 484.117188 247.511719 C 463.40625 247.511719 446.617188 264.300781 446.617188 285.011719 C 446.617188 305.722656 463.40625 322.511719 484.117188 322.511719 C 504.828125 322.511719 521.617188 305.722656 521.617188 285.011719 C 521.617188 264.300781 504.828125 247.511719 484.117188 247.511719 " fill-opacity="1" fill-rule="nonzero"/><g fill="#f7f7f7" fill-opacity="1"><g transform="translate(557.365633, 294.819706)"><g><path d="M 0.046875 0.703125 C 0.847656 0.773438 1.429688 0.8125 1.796875 0.8125 C 2.515625 0.8125 2.992188 0.664062 3.234375 0.375 C 3.472656 0.09375 3.59375 -0.453125 3.59375 -1.265625 L 3.59375 -17.09375 L 8.109375 -17.09375 L 8.109375 -1.34375 C 8.109375 0.675781 7.695312 2.15625 6.875 3.09375 C 6.0625 4.039062 4.664062 4.515625 2.6875 4.515625 C 1.90625 4.515625 1.023438 4.441406 0.046875 4.296875 Z M 0.046875 0.703125 "/></g></g></g><g fill="#f7f7f7" fill-opacity="1"><g transform="translate(567.037652, 294.819706)"><g><path d="M 14.5625 0 L 13.0625 -3.53125 L 5.46875 -3.53125 L 3.953125 0 L -0.546875 0 L 7.4375 -17.09375 L 10.984375 -17.09375 L 19.015625 0 Z M 6.9375 -6.90625 L 11.59375 -6.90625 L 9.265625 -12.3125 Z M 6.9375 -6.90625 "/></g></g></g><g fill="#f7f7f7" fill-opacity="1"><g transform="translate(585.493687, 294.819706)"><g><path d="M 14.046875 -17.09375 L 18.578125 -17.09375 L 10.796875 0 L 7.21875 0 L -0.546875 -17.09375 L 4.125 -17.09375 L 9.046875 -5.609375 Z M 14.046875 -17.09375 "/></g></g></g><g fill="#f7f7f7" fill-opacity="1"><g transform="translate(603.517718, 294.819706)"><g><path d="M 14.5625 0 L 13.0625 -3.53125 L 5.46875 -3.53125 L 3.953125 0 L -0.546875 0 L 7.4375 -17.09375 L 10.984375 -17.09375 L 19.015625 0 Z M 6.9375 -6.90625 L 11.59375 -6.90625 L 9.265625 -12.3125 Z M 6.9375 -6.90625 "/></g></g></g><g fill="#f7f7f7" fill-opacity="1"><g transform="translate(621.973753, 294.819706)"><g><path d="M 7.734375 0.21875 C 6.453125 0.21875 5.1875 0.0507812 3.9375 -0.28125 C 2.6875 -0.625 1.671875 -1.082031 0.890625 -1.65625 L 2.296875 -4.84375 C 3.128906 -4.320312 4.015625 -3.921875 4.953125 -3.640625 C 5.890625 -3.359375 6.832031 -3.21875 7.78125 -3.21875 C 8.738281 -3.21875 9.472656 -3.347656 9.984375 -3.609375 C 10.492188 -3.878906 10.75 -4.253906 10.75 -4.734375 C 10.75 -5.160156 10.515625 -5.515625 10.046875 -5.796875 C 9.585938 -6.078125 8.71875 -6.351562 7.4375 -6.625 C 5.820312 -6.945312 4.566406 -7.34375 3.671875 -7.8125 C 2.773438 -8.28125 2.144531 -8.832031 1.78125 -9.46875 C 1.425781 -10.113281 1.25 -10.894531 1.25 -11.8125 C 1.25 -12.851562 1.546875 -13.789062 2.140625 -14.625 C 2.734375 -15.46875 3.5625 -16.125 4.625 -16.59375 C 5.695312 -17.0625 6.921875 -17.296875 8.296875 -17.296875 C 9.535156 -17.296875 10.734375 -17.125 11.890625 -16.78125 C 13.046875 -16.4375 13.953125 -15.988281 14.609375 -15.4375 L 13.21875 -12.234375 C 12.46875 -12.765625 11.675781 -13.171875 10.84375 -13.453125 C 10.007812 -13.734375 9.179688 -13.875 8.359375 -13.875 C 7.535156 -13.875 6.875 -13.71875 6.375 -13.40625 C 5.882812 -13.09375 5.640625 -12.671875 5.640625 -12.140625 C 5.640625 -11.859375 5.726562 -11.617188 5.90625 -11.421875 C 6.082031 -11.234375 6.410156 -11.046875 6.890625 -10.859375 C 7.367188 -10.671875 8.085938 -10.472656 9.046875 -10.265625 C 10.597656 -9.929688 11.816406 -9.53125 12.703125 -9.0625 C 13.597656 -8.59375 14.226562 -8.039062 14.59375 -7.40625 C 14.957031 -6.769531 15.140625 -6.015625 15.140625 -5.140625 C 15.140625 -3.472656 14.488281 -2.160156 13.1875 -1.203125 C 11.894531 -0.253906 10.078125 0.21875 7.734375 0.21875 Z M 7.734375 0.21875 "/></g></g></g><g fill="#f7f7f7" fill-opacity="1"><g transform="translate(638.101785, 294.819706)"><g><path d="M 9.84375 0.21875 C 8.0625 0.21875 6.507812 -0.144531 5.1875 -0.875 C 3.875 -1.601562 2.859375 -2.628906 2.140625 -3.953125 C 1.429688 -5.285156 1.078125 -6.820312 1.078125 -8.5625 C 1.078125 -10.289062 1.429688 -11.816406 2.140625 -13.140625 C 2.859375 -14.460938 3.875 -15.484375 5.1875 -16.203125 C 6.507812 -16.929688 8.0625 -17.296875 9.84375 -17.296875 C 10.957031 -17.296875 12.035156 -17.128906 13.078125 -16.796875 C 14.128906 -16.460938 14.976562 -16.007812 15.625 -15.4375 L 14.25 -12.234375 C 12.863281 -13.242188 11.425781 -13.75 9.9375 -13.75 C 8.5625 -13.75 7.503906 -13.3125 6.765625 -12.4375 C 6.023438 -11.570312 5.65625 -10.28125 5.65625 -8.5625 C 5.65625 -6.832031 6.023438 -5.53125 6.765625 -4.65625 C 7.503906 -3.78125 8.5625 -3.34375 9.9375 -3.34375 C 11.425781 -3.34375 12.863281 -3.84375 14.25 -4.84375 L 15.625 -1.65625 C 14.976562 -1.082031 14.128906 -0.625 13.078125 -0.28125 C 12.035156 0.0507812 10.957031 0.21875 9.84375 0.21875 Z M 9.84375 0.21875 "/></g></g></g><g fill="#f7f7f7" fill-opacity="1"><g transform="translate(654.541817, 294.819706)"><g><path d="M 16.390625 0 L 11.609375 0 L 9.40625 -5.6875 C 9.15625 -6.320312 8.554688 -6.640625 7.609375 -6.640625 L 5.96875 -6.640625 L 5.96875 0 L 1.53125 0 L 1.53125 -17.09375 L 9.484375 -17.09375 C 11.546875 -17.09375 13.097656 -16.644531 14.140625 -15.75 C 15.179688 -14.863281 15.703125 -13.597656 15.703125 -11.953125 C 15.703125 -10.796875 15.390625 -9.796875 14.765625 -8.953125 C 14.148438 -8.117188 13.285156 -7.523438 12.171875 -7.171875 C 12.648438 -7.078125 13.082031 -6.851562 13.46875 -6.5 C 13.851562 -6.144531 14.15625 -5.675781 14.375 -5.09375 Z M 8.765625 -10.015625 C 9.722656 -10.015625 10.414062 -10.160156 10.84375 -10.453125 C 11.28125 -10.742188 11.5 -11.203125 11.5 -11.828125 C 11.5 -12.484375 11.285156 -12.957031 10.859375 -13.25 C 10.429688 -13.539062 9.734375 -13.6875 8.765625 -13.6875 L 5.921875 -13.6875 L 5.921875 -10.015625 Z M 8.765625 -10.015625 "/></g></g></g><g fill="#f7f7f7" fill-opacity="1"><g transform="translate(671.677856, 294.819706)"><g><path d="M 1.53125 0 L 1.53125 -17.09375 L 6.046875 -17.09375 L 6.046875 0 Z M 1.53125 0 "/></g></g></g><g fill="#f7f7f7" fill-opacity="1"><g transform="translate(679.261867, 294.819706)"><g><path d="M 1.53125 -17.09375 L 9.671875 -17.09375 C 11.617188 -17.09375 13.128906 -16.625 14.203125 -15.6875 C 15.273438 -14.75 15.8125 -13.476562 15.8125 -11.875 C 15.8125 -10.289062 15.265625 -9.023438 14.171875 -8.078125 C 13.085938 -7.140625 11.585938 -6.671875 9.671875 -6.671875 L 6.046875 -6.671875 L 6.046875 0 L 1.53125 0 Z M 9.078125 -10.03125 C 10.765625 -10.03125 11.609375 -10.628906 11.609375 -11.828125 C 11.609375 -12.441406 11.40625 -12.90625 11 -13.21875 C 10.59375 -13.53125 9.953125 -13.6875 9.078125 -13.6875 L 6.046875 -13.6875 L 6.046875 -10.03125 Z M 9.078125 -10.03125 "/></g></g></g><g fill="#f7f7f7" fill-opacity="1"><g transform="translate(695.7019, 294.819706)"><g><path d="M 5.375 0 L 5.375 -13.4375 L 0.28125 -13.4375 L 0.28125 -17.09375 L 15.03125 -17.09375 L 15.03125 -13.4375 L 9.9375 -13.4375 L 9.9375 0 Z M 5.375 0 "/></g></g></g><g fill="#f7f7f7" fill-opacity="1"><g transform="translate(469.633375, 302.93239)"><g><path d="M 20.5 -17.609375 C 22.476562 -17.035156 24.003906 -16.03125 25.078125 -14.59375 C 26.148438 -13.15625 26.6875 -11.394531 26.6875 -9.3125 C 26.6875 -7.332031 26.148438 -5.613281 25.078125 -4.15625 C 24.003906 -2.695312 22.457031 -1.570312 20.4375 -0.78125 C 18.425781 0 16.078125 0.390625 13.390625 0.390625 C 10.992188 0.390625 8.664062 0.0625 6.40625 -0.59375 C 4.15625 -1.25 2.359375 -2.140625 1.015625 -3.265625 L 3.84375 -9.640625 C 6.8125 -7.597656 9.847656 -6.578125 12.953125 -6.578125 C 14.878906 -6.578125 16.238281 -6.851562 17.03125 -7.40625 C 17.832031 -7.96875 18.234375 -8.921875 18.234375 -10.265625 C 18.234375 -11.546875 17.84375 -12.457031 17.0625 -13 C 16.28125 -13.550781 14.976562 -13.828125 13.15625 -13.828125 L 7.828125 -13.828125 L 7.828125 -20.734375 L 12.234375 -20.734375 C 14.023438 -20.734375 15.3125 -20.976562 16.09375 -21.46875 C 16.882812 -21.96875 17.28125 -22.78125 17.28125 -23.90625 C 17.28125 -25.125 16.90625 -26.050781 16.15625 -26.6875 C 15.40625 -27.320312 14.359375 -27.640625 13.015625 -27.640625 C 11.628906 -27.640625 10.175781 -27.375 8.65625 -26.84375 C 7.144531 -26.320312 5.695312 -25.566406 4.3125 -24.578125 L 1.484375 -30.953125 C 2.859375 -32.046875 4.65625 -32.925781 6.875 -33.59375 C 9.101562 -34.269531 11.351562 -34.609375 13.625 -34.609375 C 16.0625 -34.609375 18.191406 -34.222656 20.015625 -33.453125 C 21.835938 -32.679688 23.253906 -31.582031 24.265625 -30.15625 C 25.273438 -28.738281 25.78125 -27.085938 25.78125 -25.203125 C 25.8125 -23.410156 25.363281 -21.859375 24.4375 -20.546875 C 23.507812 -19.234375 22.195312 -18.253906 20.5 -17.609375 Z M 20.5 -17.609375 "/></g></g></g><path fill="#ffad01" d="M 674.675781 423.949219 L 402.824219 423.949219 C 397.144531 423.949219 392.515625 419.304688 392.515625 413.609375 L 392.515625 373.539062 C 392.515625 367.84375 397.144531 363.199219 402.824219 363.199219 L 674.675781 363.199219 C 680.355469 363.199219 684.984375 367.84375 684.984375 373.539062 L 684.984375 413.609375 C 684.984375 419.304688 680.355469 423.949219 674.675781 423.949219 " fill-opacity="1" fill-rule="nonzero"/><path fill="#ff5757" d="M 411.25 356.039062 C 390.539062 356.039062 373.75 372.828125 373.75 393.539062 C 373.75 414.25 390.539062 431.039062 411.25 431.039062 C 431.960938 431.039062 448.75 414.25 448.75 393.539062 C 448.75 372.828125 431.960938 356.039062 411.25 356.039062 " fill-opacity="1" fill-rule="nonzero"/><g fill="#f7f7f7" fill-opacity="1"><g transform="translate(510.917193, 401.010649)"><g><path d="M 12.578125 -17.09375 L 16.828125 -17.09375 L 16.828125 0 L 13.484375 0 L 5.734375 -9.703125 L 5.734375 0 L 1.53125 0 L 1.53125 -17.09375 L 4.828125 -17.09375 L 12.578125 -7.4375 Z M 12.578125 -17.09375 "/></g></g></g><g fill="#f7f7f7" fill-opacity="1"><g transform="translate(529.301233, 401.010649)"><g><path d="M 9.671875 0.21875 C 7.929688 0.21875 6.410156 -0.132812 5.109375 -0.84375 C 3.816406 -1.5625 2.820312 -2.582031 2.125 -3.90625 C 1.425781 -5.238281 1.078125 -6.789062 1.078125 -8.5625 C 1.078125 -10.34375 1.425781 -11.890625 2.125 -13.203125 C 2.832031 -14.515625 3.832031 -15.523438 5.125 -16.234375 C 6.414062 -16.941406 7.929688 -17.296875 9.671875 -17.296875 C 11.410156 -17.296875 12.925781 -16.941406 14.21875 -16.234375 C 15.507812 -15.523438 16.5 -14.515625 17.1875 -13.203125 C 17.875 -11.890625 18.21875 -10.34375 18.21875 -8.5625 C 18.21875 -6.789062 17.875 -5.238281 17.1875 -3.90625 C 16.5 -2.582031 15.507812 -1.5625 14.21875 -0.84375 C 12.925781 -0.132812 11.410156 0.21875 9.671875 0.21875 Z M 9.671875 -3.21875 C 10.953125 -3.21875 11.957031 -3.671875 12.6875 -4.578125 C 13.414062 -5.492188 13.78125 -6.820312 13.78125 -8.5625 C 13.78125 -10.289062 13.414062 -11.609375 12.6875 -12.515625 C 11.957031 -13.421875 10.953125 -13.875 9.671875 -13.875 C 8.390625 -13.875 7.390625 -13.425781 6.671875 -12.53125 C 5.953125 -11.632812 5.59375 -10.3125 5.59375 -8.5625 C 5.59375 -6.800781 5.953125 -5.46875 6.671875 -4.5625 C 7.390625 -3.664062 8.390625 -3.21875 9.671875 -3.21875 Z M 9.671875 -3.21875 "/></g></g></g><g fill="#f7f7f7" fill-opacity="1"><g transform="translate(548.621274, 401.010649)"><g><path d="M 1.53125 -17.09375 L 8.515625 -17.09375 C 10.410156 -17.09375 12.039062 -16.75 13.40625 -16.0625 C 14.769531 -15.382812 15.816406 -14.40625 16.546875 -13.125 C 17.273438 -11.84375 17.640625 -10.320312 17.640625 -8.5625 C 17.640625 -6.789062 17.28125 -5.257812 16.5625 -3.96875 C 15.84375 -2.6875 14.796875 -1.703125 13.421875 -1.015625 C 12.054688 -0.335938 10.421875 0 8.515625 0 L 1.53125 0 Z M 8.203125 -3.59375 C 9.867188 -3.59375 11.113281 -4.003906 11.9375 -4.828125 C 12.757812 -5.660156 13.171875 -6.90625 13.171875 -8.5625 C 13.171875 -11.84375 11.515625 -13.484375 8.203125 -13.484375 L 6.046875 -13.484375 L 6.046875 -3.59375 Z M 8.203125 -3.59375 "/></g></g></g><g fill="#f7f7f7" fill-opacity="1"><g transform="translate(567.365311, 401.010649)"><g><path d="M 1.53125 0 L 1.53125 -17.09375 L 13.734375 -17.09375 L 13.734375 -13.625 L 5.921875 -13.625 L 5.921875 -10.421875 L 13.21875 -10.421875 L 13.21875 -6.953125 L 5.921875 -6.953125 L 5.921875 -3.453125 L 13.734375 -3.453125 L 13.734375 0 Z M 1.53125 0 "/></g></g></g><g fill="#f7f7f7" fill-opacity="1"><g transform="translate(581.861335, 401.010649)"><g><path d="M 1.03125 -4.46875 L 5.5625 -4.46875 L 5.5625 0 L 1.03125 0 Z M 1.03125 -4.46875 "/></g></g></g><g fill="#f7f7f7" fill-opacity="1"><g transform="translate(588.485347, 401.010649)"><g><path d="M 0.046875 0.703125 C 0.847656 0.773438 1.429688 0.8125 1.796875 0.8125 C 2.515625 0.8125 2.992188 0.664062 3.234375 0.375 C 3.472656 0.09375 3.59375 -0.453125 3.59375 -1.265625 L 3.59375 -17.09375 L 8.109375 -17.09375 L 8.109375 -1.34375 C 8.109375 0.675781 7.695312 2.15625 6.875 3.09375 C 6.0625 4.039062 4.664062 4.515625 2.6875 4.515625 C 1.90625 4.515625 1.023438 4.441406 0.046875 4.296875 Z M 0.046875 0.703125 "/></g></g></g><g fill="#f7f7f7" fill-opacity="1"><g transform="translate(598.157367, 401.010649)"><g><path d="M 7.734375 0.21875 C 6.453125 0.21875 5.1875 0.0507812 3.9375 -0.28125 C 2.6875 -0.625 1.671875 -1.082031 0.890625 -1.65625 L 2.296875 -4.84375 C 3.128906 -4.320312 4.015625 -3.921875 4.953125 -3.640625 C 5.890625 -3.359375 6.832031 -3.21875 7.78125 -3.21875 C 8.738281 -3.21875 9.472656 -3.347656 9.984375 -3.609375 C 10.492188 -3.878906 10.75 -4.253906 10.75 -4.734375 C 10.75 -5.160156 10.515625 -5.515625 10.046875 -5.796875 C 9.585938 -6.078125 8.71875 -6.351562 7.4375 -6.625 C 5.820312 -6.945312 4.566406 -7.34375 3.671875 -7.8125 C 2.773438 -8.28125 2.144531 -8.832031 1.78125 -9.46875 C 1.425781 -10.113281 1.25 -10.894531 1.25 -11.8125 C 1.25 -12.851562 1.546875 -13.789062 2.140625 -14.625 C 2.734375 -15.46875 3.5625 -16.125 4.625 -16.59375 C 5.695312 -17.0625 6.921875 -17.296875 8.296875 -17.296875 C 9.535156 -17.296875 10.734375 -17.125 11.890625 -16.78125 C 13.046875 -16.4375 13.953125 -15.988281 14.609375 -15.4375 L 13.21875 -12.234375 C 12.46875 -12.765625 11.675781 -13.171875 10.84375 -13.453125 C 10.007812 -13.734375 9.179688 -13.875 8.359375 -13.875 C 7.535156 -13.875 6.875 -13.71875 6.375 -13.40625 C 5.882812 -13.09375 5.640625 -12.671875 5.640625 -12.140625 C 5.640625 -11.859375 5.726562 -11.617188 5.90625 -11.421875 C 6.082031 -11.234375 6.410156 -11.046875 6.890625 -10.859375 C 7.367188 -10.671875 8.085938 -10.472656 9.046875 -10.265625 C 10.597656 -9.929688 11.816406 -9.53125 12.703125 -9.0625 C 13.597656 -8.59375 14.226562 -8.039062 14.59375 -7.40625 C 14.957031 -6.769531 15.140625 -6.015625 15.140625 -5.140625 C 15.140625 -3.472656 14.488281 -2.160156 13.1875 -1.203125 C 11.894531 -0.253906 10.078125 0.21875 7.734375 0.21875 Z M 7.734375 0.21875 "/></g></g></g><g fill="#f7f7f7" fill-opacity="1"><g transform="translate(396.766184, 411.45882)"><g><path d="M 28.21875 -12.625 L 28.21875 -5.765625 L 23.8125 -5.765625 L 23.8125 0 L 14.96875 0 L 14.96875 -5.765625 L 1.296875 -5.765625 L 1.296875 -12.390625 L 16.609375 -34.171875 L 23.8125 -34.171875 L 23.8125 -12.625 Z M 9.359375 -12.625 L 14.96875 -12.625 L 14.96875 -20.6875 Z M 9.359375 -12.625 "/></g></g></g><path fill="#7c3dc6" d="M 644.597656 532.476562 L 309.753906 532.476562 C 304.078125 532.476562 299.449219 527.832031 299.449219 522.132812 L 299.449219 482.066406 C 299.449219 476.367188 304.078125 471.726562 309.753906 471.726562 L 644.597656 471.726562 C 650.277344 471.726562 654.902344 476.367188 654.902344 482.066406 L 654.902344 522.132812 C 654.902344 527.832031 650.277344 532.476562 644.597656 532.476562 " fill-opacity="1" fill-rule="nonzero"/><path fill="#ff5757" d="M 318.175781 464.5625 C 297.464844 464.5625 280.675781 481.351562 280.675781 502.0625 C 280.675781 522.773438 297.464844 539.5625 318.175781 539.5625 C 338.886719 539.5625 355.675781 522.773438 355.675781 502.0625 C 355.675781 481.351562 338.886719 464.5625 318.175781 464.5625 " fill-opacity="1" fill-rule="nonzero"/><g fill="#f7f7f7" fill-opacity="1"><g transform="translate(389.399251, 512.102111)"><g><path d="M 11.453125 0.25 C 9.390625 0.25 7.585938 -0.171875 6.046875 -1.015625 C 4.515625 -1.867188 3.332031 -3.066406 2.5 -4.609375 C 1.664062 -6.148438 1.25 -7.9375 1.25 -9.96875 C 1.25 -11.976562 1.664062 -13.75 2.5 -15.28125 C 3.332031 -16.820312 4.515625 -18.015625 6.046875 -18.859375 C 7.585938 -19.710938 9.390625 -20.140625 11.453125 -20.140625 C 12.753906 -20.140625 14.015625 -19.941406 15.234375 -19.546875 C 16.453125 -19.160156 17.4375 -18.632812 18.1875 -17.96875 L 16.59375 -14.25 C 14.976562 -15.425781 13.300781 -16.015625 11.5625 -16.015625 C 9.957031 -16.015625 8.726562 -15.503906 7.875 -14.484375 C 7.019531 -13.472656 6.59375 -11.96875 6.59375 -9.96875 C 6.59375 -7.957031 7.019531 -6.441406 7.875 -5.421875 C 8.726562 -4.398438 9.957031 -3.890625 11.5625 -3.890625 C 13.300781 -3.890625 14.976562 -4.472656 16.59375 -5.640625 L 18.1875 -1.921875 C 17.4375 -1.253906 16.453125 -0.722656 15.234375 -0.328125 C 14.015625 0.0546875 12.753906 0.25 11.453125 0.25 Z M 11.453125 0.25 "/></g></g></g><g fill="#f7f7f7" fill-opacity="1"><g transform="translate(408.536461, 512.102111)"><g><path d="M 15.25 -9.8125 L 15.25 -6.421875 L 10.078125 -6.421875 L 10.078125 -1.234375 L 6.671875 -1.234375 L 6.671875 -6.421875 L 1.515625 -6.421875 L 1.515625 -9.8125 L 6.671875 -9.8125 L 6.671875 -15 L 10.078125 -15 L 10.078125 -9.8125 Z M 15.25 -9.8125 "/></g></g></g><g fill="#f7f7f7" fill-opacity="1"><g transform="translate(425.298976, 512.102111)"><g><path d="M 15.25 -9.8125 L 15.25 -6.421875 L 10.078125 -6.421875 L 10.078125 -1.234375 L 6.671875 -1.234375 L 6.671875 -6.421875 L 1.515625 -6.421875 L 1.515625 -9.8125 L 6.671875 -9.8125 L 6.671875 -15 L 10.078125 -15 L 10.078125 -9.8125 Z M 15.25 -9.8125 "/></g></g></g><g fill="#f7f7f7" fill-opacity="1"><g transform="translate(442.051592, 512.102111)"><g/></g></g><g fill="#f7f7f7" fill-opacity="1"><g transform="translate(450.153471, 512.102111)"><g/></g></g><g fill="#f7f7f7" fill-opacity="1"><g transform="translate(458.246904, 512.102111)"><g><path d="M 18.4375 0.28125 C 16.664062 -0.144531 15.164062 -0.851562 13.9375 -1.84375 C 12.15625 -0.46875 10.179688 0.21875 8.015625 0.21875 C 6.578125 0.21875 5.300781 -0.015625 4.1875 -0.484375 C 3.070312 -0.960938 2.203125 -1.632812 1.578125 -2.5 C 0.953125 -3.363281 0.640625 -4.351562 0.640625 -5.46875 C 0.640625 -6.625 0.929688 -7.65625 1.515625 -8.5625 C 2.109375 -9.46875 3.03125 -10.28125 4.28125 -11 C 3.125 -12.21875 2.546875 -13.539062 2.546875 -14.96875 C 2.546875 -15.976562 2.800781 -16.867188 3.3125 -17.640625 C 3.820312 -18.410156 4.539062 -19.007812 5.46875 -19.4375 C 6.40625 -19.875 7.46875 -20.09375 8.65625 -20.09375 C 10.351562 -20.09375 11.703125 -19.660156 12.703125 -18.796875 C 13.710938 -17.941406 14.21875 -16.804688 14.21875 -15.390625 C 14.21875 -13.347656 13.101562 -11.691406 10.875 -10.421875 L 13.71875 -7.796875 C 14.382812 -9.242188 14.773438 -10.757812 14.890625 -12.34375 L 19.03125 -12.34375 C 18.945312 -10.988281 18.710938 -9.6875 18.328125 -8.4375 C 17.953125 -7.1875 17.441406 -6.039062 16.796875 -5 C 18.003906 -4.070312 19.34375 -3.46875 20.8125 -3.1875 Z M 8.75 -16.8125 C 8.226562 -16.8125 7.800781 -16.65625 7.46875 -16.34375 C 7.144531 -16.03125 6.984375 -15.59375 6.984375 -15.03125 C 6.984375 -14.695312 7.070312 -14.378906 7.25 -14.078125 C 7.425781 -13.785156 7.765625 -13.382812 8.265625 -12.875 C 8.972656 -13.25 9.484375 -13.613281 9.796875 -13.96875 C 10.117188 -14.320312 10.28125 -14.734375 10.28125 -15.203125 C 10.28125 -15.703125 10.132812 -16.09375 9.84375 -16.375 C 9.5625 -16.664062 9.195312 -16.8125 8.75 -16.8125 Z M 5.5625 -5.84375 C 5.5625 -5.15625 5.789062 -4.601562 6.25 -4.1875 C 6.71875 -3.78125 7.351562 -3.578125 8.15625 -3.578125 C 9.144531 -3.578125 10.113281 -3.898438 11.0625 -4.546875 L 6.921875 -8.5 C 6.015625 -7.800781 5.5625 -6.914062 5.5625 -5.84375 Z M 5.5625 -5.84375 "/></g></g></g><g fill="#f7f7f7" fill-opacity="1"><g transform="translate(478.051591, 512.102111)"><g/></g></g><g fill="#f7f7f7" fill-opacity="1"><g transform="translate(486.153469, 512.102111)"><g/></g></g><g fill="#f7f7f7" fill-opacity="1"><g transform="translate(494.246902, 512.102111)"><g><path d="M 1.78125 -19.890625 L 11.265625 -19.890625 C 13.535156 -19.890625 15.289062 -19.34375 16.53125 -18.25 C 17.78125 -17.164062 18.40625 -15.691406 18.40625 -13.828125 C 18.40625 -11.984375 17.769531 -10.507812 16.5 -9.40625 C 15.238281 -8.3125 13.492188 -7.765625 11.265625 -7.765625 L 7.046875 -7.765625 L 7.046875 0 L 1.78125 0 Z M 10.5625 -11.671875 C 12.53125 -11.671875 13.515625 -12.367188 13.515625 -13.765625 C 13.515625 -14.472656 13.273438 -15.007812 12.796875 -15.375 C 12.328125 -15.738281 11.582031 -15.921875 10.5625 -15.921875 L 7.046875 -15.921875 L 7.046875 -11.671875 Z M 10.5625 -11.671875 "/></g></g></g><g fill="#f7f7f7" fill-opacity="1"><g transform="translate(513.384112, 512.102111)"><g><path d="M 20.234375 -19.890625 L 11.8125 -7.59375 L 11.8125 0 L 6.53125 0 L 6.53125 -7.625 L -1.8125 -19.890625 L 4.109375 -19.890625 L 9.140625 -11.953125 L 14.25 -19.890625 Z M 20.234375 -19.890625 "/></g></g></g><g fill="#f7f7f7" fill-opacity="1"><g transform="translate(531.739073, 512.102111)"><g><path d="M 6.265625 0 L 6.265625 -15.640625 L 0.328125 -15.640625 L 0.328125 -19.890625 L 17.484375 -19.890625 L 17.484375 -15.640625 L 11.5625 -15.640625 L 11.5625 0 Z M 6.265625 0 "/></g></g></g><g fill="#f7f7f7" fill-opacity="1"><g transform="translate(549.563222, 512.102111)"><g><path d="M 14.96875 -19.890625 L 20.109375 -19.890625 L 20.109375 0 L 14.96875 0 L 14.96875 -8.046875 L 6.921875 -8.046875 L 6.921875 0 L 1.78125 0 L 1.78125 -19.890625 L 6.921875 -19.890625 L 6.921875 -12.15625 L 14.96875 -12.15625 Z M 14.96875 -19.890625 "/></g></g></g><g fill="#f7f7f7" fill-opacity="1"><g transform="translate(571.466252, 512.102111)"><g><path d="M 11.265625 0.25 C 9.234375 0.25 7.460938 -0.160156 5.953125 -0.984375 C 4.441406 -1.816406 3.28125 -3.003906 2.46875 -4.546875 C 1.65625 -6.097656 1.25 -7.90625 1.25 -9.96875 C 1.25 -12.039062 1.660156 -13.835938 2.484375 -15.359375 C 3.304688 -16.890625 4.46875 -18.066406 5.96875 -18.890625 C 7.46875 -19.722656 9.234375 -20.140625 11.265625 -20.140625 C 13.285156 -20.140625 15.046875 -19.722656 16.546875 -18.890625 C 18.046875 -18.066406 19.195312 -16.890625 20 -15.359375 C 20.800781 -13.835938 21.203125 -12.039062 21.203125 -9.96875 C 21.203125 -7.90625 20.800781 -6.097656 20 -4.546875 C 19.195312 -3.003906 18.046875 -1.816406 16.546875 -0.984375 C 15.046875 -0.160156 13.285156 0.25 11.265625 0.25 Z M 11.265625 -3.75 C 12.753906 -3.75 13.921875 -4.273438 14.765625 -5.328125 C 15.609375 -6.390625 16.03125 -7.9375 16.03125 -9.96875 C 16.03125 -11.976562 15.609375 -13.507812 14.765625 -14.5625 C 13.921875 -15.613281 12.753906 -16.140625 11.265625 -16.140625 C 9.773438 -16.140625 8.609375 -15.617188 7.765625 -14.578125 C 6.929688 -13.535156 6.515625 -12 6.515625 -9.96875 C 6.515625 -7.925781 6.929688 -6.378906 7.765625 -5.328125 C 8.609375 -4.273438 9.773438 -3.75 11.265625 -3.75 Z M 11.265625 -3.75 "/></g></g></g><g fill="#f7f7f7" fill-opacity="1"><g transform="translate(593.955963, 512.102111)"><g><path d="M 14.640625 -19.890625 L 19.578125 -19.890625 L 19.578125 0 L 15.703125 0 L 6.671875 -11.28125 L 6.671875 0 L 1.78125 0 L 1.78125 -19.890625 L 5.609375 -19.890625 L 14.640625 -8.65625 Z M 14.640625 -19.890625 "/></g></g></g><g fill="#f7f7f7" fill-opacity="1"><g transform="translate(303.692566, 519.98527)"><g><path d="M 16.703125 -22.421875 C 18.816406 -22.421875 20.703125 -21.953125 22.359375 -21.015625 C 24.023438 -20.085938 25.320312 -18.789062 26.25 -17.125 C 27.175781 -15.46875 27.640625 -13.550781 27.640625 -11.375 C 27.640625 -9.007812 27.070312 -6.9375 25.9375 -5.15625 C 24.800781 -3.382812 23.1875 -2.015625 21.09375 -1.046875 C 19 -0.0859375 16.5625 0.390625 13.78125 0.390625 C 11.570312 0.390625 9.378906 0.0546875 7.203125 -0.609375 C 5.023438 -1.285156 3.28125 -2.171875 1.96875 -3.265625 L 4.75 -9.640625 C 7.695312 -7.597656 10.753906 -6.578125 13.921875 -6.578125 C 15.710938 -6.578125 17.039062 -6.9375 17.90625 -7.65625 C 18.769531 -8.375 19.203125 -9.484375 19.203125 -10.984375 C 19.203125 -12.460938 18.742188 -13.59375 17.828125 -14.375 C 16.921875 -15.15625 15.648438 -15.546875 14.015625 -15.546875 C 13.117188 -15.546875 12.148438 -15.394531 11.109375 -15.09375 C 10.066406 -14.789062 9.097656 -14.398438 8.203125 -13.921875 L 3.265625 -13.921875 L 3.265625 -34.171875 L 25.828125 -34.171875 L 25.828125 -27.359375 L 12 -27.359375 L 12 -21.5 C 13.3125 -22.113281 14.878906 -22.421875 16.703125 -22.421875 Z M 16.703125 -22.421875 "/></g></g></g><g fill="#f7f7f7" fill-opacity="1"><g transform="translate(67.506918, 301.125007)"><g><path d="M 21.71875 -24.203125 L 26.6875 -24.203125 L 26.6875 0 L 21.109375 0 L 21.078125 -11.078125 L 16.484375 0 L 12.4375 0 L 7.8125 -10.953125 L 7.8125 0 L 2.28125 0 L 2.28125 -24.203125 L 7.28125 -24.203125 L 14.515625 -7.6875 Z M 21.71875 -24.203125 "/></g></g></g><g fill="#f7f7f7" fill-opacity="1"><g transform="translate(96.471604, 301.125007)"><g><path d="M 24.609375 -24.203125 L 14.375 -9.25 L 14.375 0 L 7.953125 0 L 7.953125 -9.28125 L -2.203125 -24.203125 L 5 -24.203125 L 11.125 -14.546875 L 17.34375 -24.203125 Z M 24.609375 -24.203125 "/></g></g></g><g fill="#f7f7f7" fill-opacity="1"><g transform="translate(118.807048, 301.125007)"><g/></g></g><g fill="#f7f7f7" fill-opacity="1"><g transform="translate(128.665915, 301.125007)"><g><path d="M 10.953125 0.3125 C 9.140625 0.3125 7.347656 0.0703125 5.578125 -0.40625 C 3.804688 -0.882812 2.367188 -1.53125 1.265625 -2.34375 L 3.265625 -6.875 C 4.441406 -6.125 5.691406 -5.550781 7.015625 -5.15625 C 8.347656 -4.757812 9.679688 -4.5625 11.015625 -4.5625 C 12.378906 -4.5625 13.421875 -4.742188 14.140625 -5.109375 C 14.867188 -5.484375 15.234375 -6.015625 15.234375 -6.703125 C 15.234375 -7.304688 14.90625 -7.804688 14.25 -8.203125 C 13.59375 -8.609375 12.359375 -9.003906 10.546875 -9.390625 C 8.253906 -9.835938 6.472656 -10.394531 5.203125 -11.0625 C 3.929688 -11.726562 3.039062 -12.515625 2.53125 -13.421875 C 2.019531 -14.335938 1.765625 -15.441406 1.765625 -16.734375 C 1.765625 -18.203125 2.179688 -19.53125 3.015625 -20.71875 C 3.859375 -21.914062 5.039062 -22.847656 6.5625 -23.515625 C 8.082031 -24.179688 9.816406 -24.515625 11.765625 -24.515625 C 13.503906 -24.515625 15.195312 -24.269531 16.84375 -23.78125 C 18.488281 -23.289062 19.773438 -22.648438 20.703125 -21.859375 L 18.734375 -17.34375 C 17.671875 -18.09375 16.546875 -18.664062 15.359375 -19.0625 C 14.179688 -19.457031 13.003906 -19.65625 11.828125 -19.65625 C 10.671875 -19.65625 9.738281 -19.429688 9.03125 -18.984375 C 8.332031 -18.546875 7.984375 -17.953125 7.984375 -17.203125 C 7.984375 -16.796875 8.109375 -16.457031 8.359375 -16.1875 C 8.609375 -15.914062 9.070312 -15.648438 9.75 -15.390625 C 10.4375 -15.128906 11.457031 -14.847656 12.8125 -14.546875 C 15.007812 -14.078125 16.738281 -13.503906 18 -12.828125 C 19.257812 -12.160156 20.148438 -11.378906 20.671875 -10.484375 C 21.191406 -9.585938 21.453125 -8.519531 21.453125 -7.28125 C 21.453125 -4.914062 20.535156 -3.054688 18.703125 -1.703125 C 16.867188 -0.359375 14.285156 0.3125 10.953125 0.3125 Z M 10.953125 0.3125 "/></g></g></g><g fill="#f7f7f7" fill-opacity="1"><g transform="translate(151.511297, 301.125007)"><g><path d="M 25.84375 0 L 18.265625 0 L 8.5625 -10.984375 L 8.5625 0 L 2.171875 0 L 2.171875 -24.203125 L 8.5625 -24.203125 L 8.5625 -13.796875 L 17.984375 -24.203125 L 25.46875 -24.203125 L 14.75 -12.71875 Z M 25.84375 0 "/></g></g></g><g fill="#f7f7f7" fill-opacity="1"><g transform="translate(175.512543, 301.125007)"><g><path d="M 2.171875 0 L 2.171875 -24.203125 L 8.5625 -24.203125 L 8.5625 0 Z M 2.171875 0 "/></g></g></g><g fill="#f7f7f7" fill-opacity="1"><g transform="translate(186.255318, 301.125007)"><g><path d="M 2.171875 0 L 2.171875 -24.203125 L 8.5625 -24.203125 L 8.5625 -5.171875 L 18.796875 -5.171875 L 18.796875 0 Z M 2.171875 0 "/></g></g></g><g fill="#f7f7f7" fill-opacity="1"><g transform="translate(205.939063, 301.125007)"><g><path d="M 2.171875 0 L 2.171875 -24.203125 L 8.5625 -24.203125 L 8.5625 -5.171875 L 18.796875 -5.171875 L 18.796875 0 Z M 2.171875 0 "/></g></g></g><g fill="#f7f7f7" fill-opacity="1"><g transform="translate(225.622809, 301.125007)"><g><path d="M 10.953125 0.3125 C 9.140625 0.3125 7.347656 0.0703125 5.578125 -0.40625 C 3.804688 -0.882812 2.367188 -1.53125 1.265625 -2.34375 L 3.265625 -6.875 C 4.441406 -6.125 5.691406 -5.550781 7.015625 -5.15625 C 8.347656 -4.757812 9.679688 -4.5625 11.015625 -4.5625 C 12.378906 -4.5625 13.421875 -4.742188 14.140625 -5.109375 C 14.867188 -5.484375 15.234375 -6.015625 15.234375 -6.703125 C 15.234375 -7.304688 14.90625 -7.804688 14.25 -8.203125 C 13.59375 -8.609375 12.359375 -9.003906 10.546875 -9.390625 C 8.253906 -9.835938 6.472656 -10.394531 5.203125 -11.0625 C 3.929688 -11.726562 3.039062 -12.515625 2.53125 -13.421875 C 2.019531 -14.335938 1.765625 -15.441406 1.765625 -16.734375 C 1.765625 -18.203125 2.179688 -19.53125 3.015625 -20.71875 C 3.859375 -21.914062 5.039062 -22.847656 6.5625 -23.515625 C 8.082031 -24.179688 9.816406 -24.515625 11.765625 -24.515625 C 13.503906 -24.515625 15.195312 -24.269531 16.84375 -23.78125 C 18.488281 -23.289062 19.773438 -22.648438 20.703125 -21.859375 L 18.734375 -17.34375 C 17.671875 -18.09375 16.546875 -18.664062 15.359375 -19.0625 C 14.179688 -19.457031 13.003906 -19.65625 11.828125 -19.65625 C 10.671875 -19.65625 9.738281 -19.429688 9.03125 -18.984375 C 8.332031 -18.546875 7.984375 -17.953125 7.984375 -17.203125 C 7.984375 -16.796875 8.109375 -16.457031 8.359375 -16.1875 C 8.609375 -15.914062 9.070312 -15.648438 9.75 -15.390625 C 10.4375 -15.128906 11.457031 -14.847656 12.8125 -14.546875 C 15.007812 -14.078125 16.738281 -13.503906 18 -12.828125 C 19.257812 -12.160156 20.148438 -11.378906 20.671875 -10.484375 C 21.191406 -9.585938 21.453125 -8.519531 21.453125 -7.28125 C 21.453125 -4.914062 20.535156 -3.054688 18.703125 -1.703125 C 16.867188 -0.359375 14.285156 0.3125 10.953125 0.3125 Z M 10.953125 0.3125 "/></g></g></g></svg>